<svg width="127" height="30" viewBox="0 0 127 30" fill="none" xmlns="http://www.w3.org/2000/svg" data-selector="logo-primary" data-version="1.6.1" data-testid="logo" class="rw-mb-8 rw-h-32" aria-hidden="true"><path d="M0.523315 0V30H30.5233V0H0.523315ZM14.3758 16.8579L11.0151 22.4863H3.50146L12.4632 7.48634H14.3485L14.3758 16.8579ZM20.0042 22.4863L16.6435 16.8579V7.48634H18.5288L27.4905 22.4863H20.0042Z" fill="#00638E"></path><path d="M123.036 10.4637C123.036 10.2089 123.075 9.97381 123.173 9.73867C123.271 9.52312 123.408 9.32717 123.565 9.17041C123.722 9.01365 123.918 8.87648 124.133 8.7981C124.349 8.70013 124.584 8.66094 124.839 8.66094C125.074 8.66094 125.309 8.70013 125.544 8.7981C125.76 8.89608 125.956 9.01365 126.113 9.17041C126.269 9.32717 126.406 9.52312 126.504 9.73867C126.602 9.95421 126.642 10.1894 126.642 10.4441C126.642 10.6988 126.602 10.934 126.504 11.1691C126.406 11.3846 126.269 11.5806 126.113 11.7374C125.956 11.8941 125.76 12.0313 125.544 12.1097C125.329 12.2076 125.094 12.2468 124.839 12.2468C124.584 12.2468 124.349 12.2076 124.133 12.1097C123.918 12.0117 123.722 11.8941 123.565 11.7374C123.408 11.5806 123.271 11.3846 123.173 11.1691C123.095 10.9536 123.036 10.7184 123.036 10.4637ZM123.33 10.4637C123.33 10.6792 123.369 10.8752 123.448 11.0711C123.526 11.2475 123.644 11.4238 123.781 11.561C123.918 11.6982 124.075 11.7961 124.271 11.8745C124.447 11.9529 124.643 11.9921 124.858 11.9921C125.074 11.9921 125.27 11.9529 125.446 11.8745C125.623 11.7961 125.799 11.6786 125.936 11.5414C126.073 11.4042 126.191 11.2475 126.269 11.0515C126.348 10.8556 126.387 10.6596 126.387 10.4441C126.387 10.2285 126.348 10.0326 126.269 9.83664C126.191 9.64069 126.073 9.48393 125.936 9.34676C125.799 9.2096 125.642 9.11162 125.446 9.03324C125.27 8.95486 125.074 8.91567 124.858 8.91567C124.643 8.91567 124.447 8.95486 124.271 9.03324C124.094 9.11162 123.918 9.22919 123.781 9.34676C123.644 9.48393 123.526 9.64069 123.448 9.83664C123.369 10.0522 123.33 10.2481 123.33 10.4637ZM124.173 9.42514H124.937C125.192 9.42514 125.368 9.46433 125.486 9.56231C125.603 9.66028 125.662 9.81705 125.662 10.013C125.662 10.2089 125.603 10.3265 125.505 10.4245C125.407 10.5029 125.27 10.5617 125.113 10.5813L125.721 11.5022H125.407L124.839 10.6204H124.467V11.5022H124.173V9.42514ZM124.467 10.3657H125.035C125.094 10.3657 125.172 10.3461 125.211 10.3265C125.27 10.3069 125.309 10.2677 125.329 10.2285C125.368 10.1894 125.368 10.111 125.368 10.0326C125.368 9.95421 125.348 9.89543 125.329 9.85624C125.309 9.81704 125.27 9.77785 125.211 9.75826C125.172 9.73866 125.113 9.71907 125.054 9.71907H124.447V10.3657H124.467Z" fill="#00638E"></path><path d="M44.0093 8.13194C44.7343 8.13194 45.4789 8.21032 46.2039 8.34748C46.9289 8.50424 47.5756 8.75898 48.1438 9.13129C48.7121 9.50359 49.1824 10.0131 49.5351 10.6401C49.8878 11.2671 50.0641 12.0509 50.0641 13.0111C50.0641 13.9321 49.8486 14.7355 49.3979 15.4409C48.9472 16.1463 48.3006 16.6754 47.458 17.0673L51.2594 23.1417H45.4789L42.5788 17.7531H42.4221V23.1025H37.5233V8.13194H44.0093ZM43.3822 14.4611C43.5586 14.4611 43.7349 14.4415 43.9309 14.4219C44.1268 14.4024 44.3228 14.324 44.4991 14.2456C44.6755 14.1476 44.8127 14.03 44.9498 13.8733C45.0674 13.7165 45.1262 13.501 45.1262 13.2266C45.1262 12.9523 45.0674 12.7564 44.9694 12.5996C44.8715 12.4428 44.7539 12.3253 44.5971 12.2469C44.4404 12.1685 44.2836 12.1293 44.0877 12.0901C43.9113 12.0705 43.7349 12.0509 43.5782 12.0509H42.3829V14.4611H43.3822Z" fill="#00638E"></path><path d="M63.1732 17.4984C63.1732 18.4585 62.9969 19.3207 62.6637 20.0653C62.311 20.8099 61.8603 21.437 61.2725 21.966C60.6846 22.4755 59.9988 22.8674 59.2346 23.1417C58.4704 23.4161 57.6474 23.5532 56.8048 23.5532C55.9622 23.5532 55.1784 23.4161 54.3946 23.1417C53.6304 22.8674 52.9446 22.4755 52.3764 21.966C51.7885 21.4566 51.3378 20.8099 50.9851 20.0653C50.6324 19.3207 50.4756 18.4585 50.4756 17.4984C50.4756 16.5578 50.652 15.7152 50.9851 14.9706C51.3378 14.226 51.7885 13.599 52.3764 13.0895C52.9642 12.58 53.6304 12.1881 54.3946 11.9334C55.1588 11.6786 55.9622 11.5415 56.8048 11.5415C57.6474 11.5415 58.4508 11.6786 59.2346 11.9334C59.9988 12.1881 60.6846 12.58 61.2725 13.0895C61.8603 13.599 62.3306 14.226 62.6637 14.9706C62.9969 15.7152 63.1732 16.5578 63.1732 17.4984ZM56.8048 15.676C56.2758 15.676 55.8251 15.8524 55.5116 16.2247C55.1784 16.597 55.0217 17.0281 55.0217 17.518C55.0217 18.047 55.198 18.4781 55.5312 18.8504C55.8643 19.2227 56.315 19.3991 56.844 19.3991C57.3731 19.3991 57.8238 19.2227 58.1569 18.8504C58.49 18.4781 58.6664 18.047 58.6664 17.518C58.6664 17.0281 58.49 16.597 58.1569 16.2247C57.7846 15.872 57.3339 15.676 56.8048 15.676ZM70.443 23.5336C69.5024 23.5336 68.6206 23.3965 67.8368 23.1025C67.053 22.8282 66.3672 22.4167 65.7794 21.8877C65.1915 21.3586 64.7408 20.7315 64.4273 20.0065C64.0942 19.2815 63.9374 18.4389 63.9374 17.5376C63.9374 16.6362 64.0942 15.8132 64.4273 15.0686C64.7604 14.324 65.2307 13.6969 65.8186 13.1679C66.4064 12.6388 67.1118 12.2469 67.8956 11.953C68.699 11.6786 69.5612 11.5219 70.4822 11.5219C70.8545 11.5219 71.2464 11.5611 71.6383 11.6199C72.0302 11.6786 72.4025 11.7766 72.7552 11.8942C73.1079 12.0118 73.441 12.1293 73.7545 12.2665C74.0485 12.4037 74.3228 12.5604 74.5187 12.7368L72.089 16.2443C71.9126 16.0483 71.6971 15.9112 71.4227 15.8132C71.1484 15.7152 70.8741 15.6564 70.6193 15.6564C70.3842 15.6564 70.1491 15.6956 69.9139 15.774C69.6788 15.8524 69.4828 15.97 69.3065 16.1267C69.1301 16.2835 68.9929 16.4794 68.8754 16.7146C68.7578 16.9497 68.699 17.224 68.699 17.5376C68.699 17.8511 68.7578 18.1254 68.8754 18.3605C68.9929 18.5957 69.1301 18.7916 69.3065 18.9288C69.4828 19.0856 69.6788 19.1835 69.9139 19.2619C70.1491 19.3403 70.3646 19.3795 70.6193 19.3795C70.8937 19.3795 71.168 19.3207 71.4423 19.2227C71.7167 19.1248 71.9322 18.968 72.1086 18.7916L74.5579 22.2012C74.0877 22.5735 73.4802 22.8674 72.7552 23.1221C72.0498 23.4161 71.266 23.5336 70.443 23.5336ZM80.0641 18.2626V23.1221H75.1654V7.113H80.0641V16.2443H80.1229L82.7683 11.9922H88.4508L84.8453 17.0085L88.4312 23.1221H82.7291L80.1229 18.2626H80.0641ZM97.0726 10.307C96.8963 10.2678 96.7395 10.2482 96.5632 10.2482C96.0733 10.2482 95.7402 10.405 95.5638 10.6989C95.3679 10.9928 95.2699 11.3651 95.2699 11.8158V11.9726H97.6213V15.4605H95.2699V23.1025H90.3711V15.4605H88.4704V11.9726H90.3711V11.7178C90.3711 11.032 90.4495 10.3658 90.6063 9.71914C90.763 9.0921 91.057 8.52384 91.4489 8.03396C91.8408 7.54409 92.3894 7.17178 93.0556 6.87786C93.7219 6.60353 94.5841 6.44677 95.603 6.44677C95.9361 6.44677 96.3084 6.46636 96.7395 6.52515C97.1706 6.58393 97.5429 6.66231 97.8368 6.76029L97.5233 10.4246C97.3861 10.405 97.2294 10.3462 97.0726 10.307ZM110.574 17.4984C110.574 18.4585 110.397 19.3207 110.064 20.0653C109.711 20.8099 109.261 21.437 108.673 21.966C108.085 22.4755 107.399 22.8674 106.635 23.1417C105.871 23.4161 105.048 23.5532 104.205 23.5532C103.363 23.5532 102.579 23.4161 101.795 23.1417C101.031 22.8674 100.345 22.4755 99.7767 21.966C99.1889 21.4566 98.7382 20.8099 98.3855 20.0653C98.0328 19.3207 97.876 18.4585 97.876 17.4984C97.876 16.5578 98.0524 15.7152 98.3855 14.9706C98.7382 14.226 99.1889 13.599 99.7767 13.0895C100.365 12.58 101.031 12.1881 101.795 11.9334C102.559 11.6786 103.363 11.5415 104.205 11.5415C105.048 11.5415 105.871 11.6786 106.635 11.9334C107.399 12.1881 108.085 12.58 108.673 13.0895C109.261 13.599 109.731 14.226 110.064 14.9706C110.397 15.7152 110.574 16.5578 110.574 17.4984ZM104.186 15.676C103.657 15.676 103.206 15.8524 102.892 16.2247C102.559 16.597 102.402 17.0281 102.402 17.518C102.402 18.047 102.579 18.4781 102.912 18.8504C103.245 19.2227 103.696 19.3991 104.225 19.3991C104.754 19.3991 105.205 19.2227 105.538 18.8504C105.871 18.4781 106.047 18.047 106.047 17.518C106.047 17.0281 105.871 16.597 105.538 16.2247C105.165 15.872 104.734 15.676 104.186 15.676ZM116.374 11.9726V13.2071H116.413C116.687 12.7956 117.118 12.4428 117.667 12.1293C118.216 11.8354 118.862 11.6786 119.587 11.6786C120.371 11.6786 120.998 11.8158 121.527 12.1097C122.037 12.3841 122.448 12.7564 122.762 13.2071C123.056 13.6577 123.271 14.1476 123.389 14.6963C123.506 15.2449 123.565 15.7936 123.565 16.3423V23.1221H118.666V17.1848C118.666 16.6166 118.568 16.2247 118.392 15.9895C118.216 15.7544 117.941 15.6564 117.589 15.6564C117.256 15.6564 117.001 15.7936 116.785 16.0483C116.589 16.3031 116.472 16.695 116.472 17.1848V23.1221H111.573V11.9726H116.374Z" fill="#00638E"></path></svg>